# xmcd
#
# Track frame offsets: 
#        150
#        19073
#        33200
#        46550
#        59075
#        69500
#        87435
#        102499
#        121774
#        141920
#
# Disc length: 2088 seconds
#
# Revision: 0
# Processed by: cddbd v1.5.2PL0 Copyright (c) Steve Scherf et al.
# Submitted via: ExactAudioCopy v1.3
#
DISCID=8308260a
DTITLE=Big Boy Bloater - Loopy
DYEAR=2014
DGENRE=Blues
TTITLE0=01. Bear Cat
TTITLE1=02. Every Path Has Its Puddle
TTITLE2=03. Pall Bearer's Song
TTITLE3=04. Bring Her Back To Me
TTITLE4=05.Double Whammy!!
TTITLE5=06. Alligator Wine
TTITLE6=07. Where'd It All Go Wrong For You
TTITLE7=08. Only Fools Know Everything
TTITLE8=09. More Than A Million
TTITLE9=10. You Don't Know Diddley
EXTD=
EXTT0=
EXTT1=
EXTT2=
EXTT3=
EXTT4=
EXTT5=
EXTT6=
EXTT7=
EXTT8=
EXTT9=
PLAYORDER=
